<svg width="1088" height="840" viewBox="0 0 1088 840" fill="none" xmlns="http://www.w3.org/2000/svg">
<g clip-path="url(#clip0_0_1)">
<path d="M961.81 606.442C956.54 651.592 945.59 687.842 930.56 716.752C910.56 755.272 876.35 770.792 845.79 787.032C836.959 791.716 827.778 795.708 818.33 798.972C762.72 818.272 700.48 813.152 651.59 802.962C617.299 795.809 582.492 791.408 547.5 789.802C537.52 789.352 527.53 789.129 517.53 789.132C502.11 789.152 224.46 794.422 156.86 657.562C140.17 623.802 128.73 582.562 124.62 532.292C112.99 390.172 176.91 296.832 259.36 235.822C415.33 120.412 629.12 125.252 782.79 243.702C885.15 322.602 980.99 442.012 961.81 606.442Z" fill="#3F3D56"/>
<path d="M930.56 716.752C910.56 755.272 883.35 780.792 852.79 797.032C843.959 801.716 834.778 805.708 825.33 808.972C769.72 828.272 707.48 823.152 658.59 812.962C624.299 805.809 589.492 801.408 554.5 799.802C544.52 799.352 534.53 799.129 524.53 799.132C509.11 799.152 493.693 799.725 478.28 800.852C378.11 808.212 224.46 794.422 156.86 657.562L326 329.962L388.95 491.581L409.04 543.171L464.41 467.191L493 427.962L623.2 577.232L660 495.962L914.78 703.881L928.99 715.471L930.56 716.752Z" fill="#F2F2F2"/>
<path opacity="0.1" d="M302 434.962L328 377.962L364 460.962L333 400.962L302 434.962Z" fill="black"/>
<path opacity="0.1" d="M554.5 799.802C544.52 799.352 534.53 799.129 524.53 799.132L409.04 543.172L554.5 799.802Z" fill="black"/>
<path opacity="0.1" d="M464.411 467.191L493 444.962L623 594.962L491 466.962L464.411 467.191Z" fill="black"/>
<path opacity="0.1" d="M852.79 797.032C843.959 801.716 834.778 805.708 825.33 808.972L623.2 577.232L852.79 797.032Z" fill="black"/>
<path d="M482 256.962C483.657 256.962 485 255.619 485 253.962C485 252.305 483.657 250.962 482 250.962C480.343 250.962 479 252.305 479 253.962C479 255.619 480.343 256.962 482 256.962Z" fill="#F2F2F2"/>
<path d="M399 359.962C400.657 359.962 402 358.619 402 356.962C402 355.305 400.657 353.962 399 353.962C397.343 353.962 396 355.305 396 356.962C396 358.619 397.343 359.962 399 359.962Z" fill="#F2F2F2"/>
<path d="M602 376.962C603.105 376.962 604 376.067 604 374.962C604 373.857 603.105 372.962 602 372.962C600.895 372.962 600 373.857 600 374.962C600 376.067 600.895 376.962 602 376.962Z" fill="#F2F2F2"/>
<path d="M182 421.962C183.105 421.962 184 421.066 184 419.962C184 418.857 183.105 417.962 182 417.962C180.895 417.962 180 418.857 180 419.962C180 421.066 180.895 421.962 182 421.962Z" fill="#F2F2F2"/>
<path d="M614 252.962C615.105 252.962 616 252.066 616 250.962C616 249.857 615.105 248.962 614 248.962C612.895 248.962 612 249.857 612 250.962C612 252.066 612.895 252.962 614 252.962Z" fill="#F2F2F2"/>
<path d="M738 348.962C739.105 348.962 740 348.067 740 346.962C740 345.857 739.105 344.962 738 344.962C736.895 344.962 736 345.857 736 346.962C736 348.067 736.895 348.962 738 348.962Z" fill="#F2F2F2"/>
<path d="M860 500.962C861.105 500.962 862 500.066 862 498.962C862 497.857 861.105 496.962 860 496.962C858.895 496.962 858 497.857 858 498.962C858 500.066 858.895 500.962 860 500.962Z" fill="#F2F2F2"/>
<path d="M306 273.222H303.24V270.462H301.76V273.222H299V274.7H301.76V277.459H303.24V274.7H306V273.222Z" fill="#F2F2F2"/>
<path d="M848 576.222H845.24V573.462H843.76V576.222H841V577.7H843.76V580.459H845.24V577.7H848V576.222Z" fill="#F2F2F2"/>
<path d="M1088 765.962C1088 782.531 844.443 839.962 544 839.962C243.557 839.962 0 782.531 0 765.962C0 749.393 243.557 779.962 544 779.962C844.443 779.962 1088 749.394 1088 765.962Z" fill="#3F3D56"/>
<path opacity="0.1" d="M1088 765.962C1088 782.531 844.443 839.962 544 839.962C243.557 839.962 0 782.531 0 765.962C0 749.393 243.557 779.962 544 779.962C844.443 779.962 1088 749.394 1088 765.962Z" fill="black"/>
<path d="M544 795.962C844.443 795.962 1088 782.53 1088 765.962C1088 749.393 844.443 735.962 544 735.962C243.557 735.962 0 749.393 0 765.962C0 782.53 243.557 795.962 544 795.962Z" fill="#3F3D56"/>
<path d="M568 723.962C568 757.099 553.225 747.962 535 747.962C516.775 747.962 502 757.099 502 723.962C502 690.825 535 627.962 535 627.962C535 627.962 568 690.825 568 723.962Z" fill="#FF6584"/>
<path opacity="0.1" d="M550 736.641C550 751.703 543.284 747.55 535 747.55C526.716 747.55 520 751.703 520 736.641C520 721.579 535 693.005 535 693.005C535 693.005 550 721.581 550 736.641Z" fill="black"/>
<path d="M572 756.962H498C493.029 756.962 489 760.991 489 765.962C489 770.932 493.029 774.962 498 774.962H572C576.971 774.962 581 770.932 581 765.962C581 760.991 576.971 756.962 572 756.962Z" fill="#2F2E41"/>
<path d="M572 738.962H498C493.029 738.962 489 742.991 489 747.962C489 752.932 493.029 756.962 498 756.962H572C576.971 756.962 581 752.932 581 747.962C581 742.991 576.971 738.962 572 738.962Z" fill="#2F2E41"/>
<path d="M137 642.528C137 697.871 171.719 742.654 214.626 742.654Z" fill="#3F3D56"/>
<path d="M214.626 742.654C214.626 686.689 253.371 641.403 301.252 641.403Z" fill="#6C63FF"/>
<path d="M165.125 647.545C165.125 700.115 187.265 742.654 214.625 742.654Z" fill="#6C63FF"/>
<path d="M214.626 742.654C214.626 671.143 259.409 613.277 314.752 613.277Z" fill="#3F3D56"/>
<path d="M198.3 743.36C198.3 743.36 209.309 743.021 212.626 740.66C215.943 738.299 229.56 735.477 230.383 739.265C231.206 743.053 246.927 758.109 234.498 758.21C222.069 758.311 205.619 756.274 202.308 754.257C198.997 752.24 198.3 743.36 198.3 743.36Z" fill="#A8A8A8"/>
<path opacity="0.2" d="M234.716 756.89C222.287 756.99 205.837 754.954 202.526 752.937C200.004 751.401 198.999 745.889 198.663 743.346L198.295 743.36C198.295 743.36 198.995 752.239 202.304 754.26C205.613 756.281 222.065 758.313 234.494 758.213C238.082 758.184 239.321 756.908 239.253 755.013C238.755 756.155 237.386 756.868 234.716 756.89Z" fill="black"/>
<path d="M721.429 679.062C721.429 717.091 745.286 747.862 774.77 747.862Z" fill="#3F3D56"/>
<path d="M774.769 747.863C774.769 709.407 801.392 678.288 834.294 678.288Z" fill="#6C63FF"/>
<path d="M740.755 682.509C740.755 718.633 755.968 747.863 774.769 747.863Z" fill="#6C63FF"/>
<path d="M774.769 747.863C774.769 698.724 805.542 658.963 843.569 658.963Z" fill="#3F3D56"/>
<path d="M763.548 748.348C763.548 748.348 771.113 748.115 773.392 746.492C775.671 744.869 785.028 742.93 785.592 745.534C786.156 748.138 796.96 758.483 788.42 758.552C779.88 758.621 768.576 757.222 766.301 755.836C764.026 754.45 763.548 748.348 763.548 748.348Z" fill="#A8A8A8"/>
<path opacity="0.2" d="M788.574 757.645C780.034 757.714 768.73 756.315 766.455 754.929C764.722 753.873 764.032 750.086 763.801 748.339L763.548 748.349C763.548 748.349 764.027 754.449 766.303 755.836C768.579 757.223 779.882 758.621 788.422 758.552C790.887 758.532 791.739 757.652 791.692 756.352C791.349 757.14 790.409 757.63 788.574 757.645Z" fill="black"/>
<path d="M893.813 770.699C893.813 770.699 905.173 768.97 908.313 766.108C911.453 763.246 925.203 758.62 926.53 762.441C927.857 766.262 946.024 779.888 933.163 781.548C920.302 783.208 903.01 783.157 899.328 781.483C895.646 779.809 893.813 770.699 893.813 770.699Z" fill="#A8A8A8"/>
<path opacity="0.2" d="M933.228 780.154C920.368 781.813 903.075 781.763 899.393 780.089C896.593 778.814 894.858 773.231 894.193 770.639L893.814 770.7C893.814 770.7 895.647 779.809 899.33 781.483C903.013 783.157 920.305 783.208 933.165 781.548C936.877 781.069 938.001 779.592 937.694 777.642C937.319 778.888 935.991 779.798 933.228 780.154Z" fill="black"/>
<path d="M614.26 769.881C614.26 769.881 623.847 768.422 626.497 766.006C629.147 763.59 640.752 759.686 641.871 762.911C642.99 766.136 658.323 777.636 647.471 779.036C636.619 780.436 622.023 780.394 618.916 778.981C615.809 777.568 614.26 769.881 614.26 769.881Z" fill="#A8A8A8"/>
<path opacity="0.2" d="M647.524 777.856C636.671 779.256 622.076 779.214 618.969 777.801C616.602 776.725 615.142 772.013 614.579 769.825L614.259 769.876C614.259 769.876 615.806 777.563 618.914 778.976C622.022 780.389 636.614 780.432 647.469 779.031C650.602 778.631 651.55 777.38 651.291 775.731C650.977 776.788 649.856 777.556 647.524 777.856Z" fill="black"/>
<path d="M122.389 765.09C122.389 765.09 129.852 763.954 131.916 762.074C133.98 760.194 143.016 757.154 143.885 759.665C144.754 762.176 156.693 771.128 148.243 772.218C139.793 773.308 128.432 773.275 126.013 772.175C123.594 771.075 122.389 765.09 122.389 765.09Z" fill="#A8A8A8"/>
<path opacity="0.2" d="M148.285 771.302C139.836 772.392 128.474 772.359 126.055 771.259C124.213 770.421 123.076 766.753 122.638 765.05L122.389 765.09C122.389 765.09 123.589 771.074 126.013 772.175C128.437 773.276 139.794 773.308 148.243 772.218C150.682 771.903 151.42 770.933 151.219 769.652C150.973 770.47 150.1 771.068 148.285 771.302Z" fill="black"/>
<path opacity="0.1" d="M383.7 753.318C383.7 783.538 341.576 774.191 290 774.191C238.424 774.191 196.926 783.538 196.926 753.318C196.926 723.098 239.044 716.525 290.62 716.525C342.196 716.525 383.7 723.098 383.7 753.318Z" fill="black"/>
<path d="M383.7 745.881C383.7 776.101 341.576 766.754 290 766.754C238.424 766.754 196.926 776.101 196.926 745.881C196.926 715.661 239.04 709.081 290.616 709.081C342.192 709.081 383.7 715.657 383.7 745.881Z" fill="#3F3D56"/>
</g>
<g clip-path="url(#clip1_0_1)">
<path d="M465.958 81.4641C464.413 82.8216 462.383 83.5811 460.186 83.4631C430.037 81.8653 403.69 105.023 401.407 135.128C401.08 139.474 397.265 142.828 392.913 142.594C388.561 142.361 385.278 138.626 385.604 134.28C388.521 95.4596 422.499 65.5946 461.372 67.682C465.724 67.9157 469.007 71.6507 468.68 75.9969C468.516 78.191 467.479 80.1266 465.958 81.4641Z" fill="#025864"/>
<path d="M463.668 111.654C462.123 113.011 460.094 113.771 457.896 113.653C451.389 113.304 445.05 115.526 440.098 119.878C435.147 124.23 432.129 130.232 431.641 136.73C431.314 141.077 427.499 144.43 423.147 144.197C418.795 143.963 415.512 140.228 415.838 135.882C416.644 125.164 421.584 115.304 429.761 108.117C437.937 100.931 448.35 97.2955 459.102 97.894C463.454 98.1277 466.737 101.863 466.41 106.209C466.249 108.361 465.212 110.296 463.668 111.654Z" fill="#025864"/>
<path d="M462.981 145.912C467.409 142.02 467.91 135.351 464.101 131.017C460.291 126.683 453.613 126.324 449.185 130.216C444.757 134.108 444.256 140.777 448.066 145.111C451.875 149.446 458.553 149.804 462.981 145.912Z" fill="#025864"/>
<path d="M468.263 50.788C466.718 52.1455 464.688 52.905 462.491 52.787C415.398 50.2794 374.244 86.4528 370.711 133.459C370.385 137.805 366.569 141.159 362.217 140.925C357.865 140.691 354.582 136.956 354.908 132.61C356.938 105.605 369.364 80.8104 389.919 62.7436C410.474 44.6768 436.657 35.5338 463.7 36.9859C468.052 37.2196 471.335 40.9546 471.008 45.3008C470.821 47.5149 469.784 49.4505 468.263 50.788Z" fill="#025864"/>
</g>
<path d="M463.043 138.112L601.959 277.667C608.237 283.974 603.77 294.722 594.872 294.722L555.27 294.722C540.37 294.722 530.702 310.43 537.415 323.732L594.374 436.608C594.783 437.42 594.689 437.815 594.64 437.985C594.555 438.287 594.296 438.736 593.772 439.121C593.247 439.506 592.742 439.618 592.428 439.61C592.251 439.605 591.846 439.577 591.194 438.943L428.299 280.601C421.861 274.344 426.291 263.431 435.269 263.431L486.819 263.431C502.021 263.431 511.665 247.141 504.355 233.813L455.115 144.044C454.237 142.443 454.271 141.287 454.487 140.466C454.742 139.499 455.414 138.451 456.504 137.636C457.593 136.821 458.788 136.472 459.787 136.5C460.636 136.524 461.754 136.818 463.043 138.112Z" fill="#025864" stroke="#025864" stroke-width="20"/>
<defs>
<clipPath id="clip0_0_1">
<rect width="1088" height="687.962" fill="white" transform="translate(0 152)"/>
</clipPath>
<clipPath id="clip1_0_1">
<rect width="149.515" height="146.356" fill="white" transform="translate(322 98.7085) rotate(-41.3145)"/>
</clipPath>
</defs>
</svg>
