<svg width="537" height="883" viewBox="0 0 537 883" fill="none" xmlns="http://www.w3.org/2000/svg">
<g clip-path="url(#clip0_0_1)">
<path d="M143.957 81.4641C142.413 82.8217 140.383 83.5812 138.186 83.4632C108.037 81.8654 81.6904 105.023 79.407 135.128C79.0804 139.474 75.2648 142.828 70.9126 142.594C66.5605 142.361 63.2776 138.626 63.6041 134.28C66.5212 95.4597 100.499 65.5946 139.372 67.682C143.724 67.9157 147.007 71.6508 146.68 75.9969C146.516 78.1911 145.479 80.1266 143.957 81.4641Z" fill="#025864"/>
<path d="M141.668 111.654C140.123 113.011 138.093 113.771 135.896 113.653C129.389 113.304 123.05 115.526 118.098 119.878C113.147 124.23 110.129 130.232 109.641 136.73C109.314 141.077 105.499 144.43 101.147 144.197C96.7946 143.963 93.5116 140.228 93.8382 135.882C94.6435 125.164 99.5845 115.304 107.761 108.117C115.937 100.931 126.35 97.2955 137.102 97.894C141.454 98.1277 144.737 101.863 144.41 106.209C144.248 108.361 143.212 110.296 141.668 111.654Z" fill="#025864"/>
<path d="M140.981 145.912C145.409 142.02 145.91 135.351 142.101 131.017C138.291 126.683 131.613 126.324 127.185 130.216C122.757 134.108 122.256 140.777 126.066 145.111C129.876 149.446 136.553 149.804 140.981 145.912Z" fill="#025864"/>
<path d="M146.263 50.788C144.718 52.1455 142.688 52.905 140.491 52.787C93.3979 50.2794 52.2435 86.4528 48.7113 133.459C48.3848 137.805 44.5691 141.159 40.217 140.925C35.8649 140.691 32.5819 136.956 32.9085 132.61C34.9377 105.605 47.3645 80.8104 67.919 62.7436C88.4735 44.6768 114.657 35.5338 141.7 36.9859C146.052 37.2196 149.335 40.9546 149.008 45.3008C148.821 47.5149 147.784 49.4505 146.263 50.788Z" fill="#025864"/>
</g>
<path d="M140.197 136.888L523.75 521.825C530.032 528.13 525.567 538.883 516.666 538.883L374.342 538.883C359.438 538.883 349.771 554.598 356.49 567.901L508.819 869.474C509.23 870.286 509.135 870.68 509.087 870.851C509.001 871.152 508.743 871.601 508.219 871.987C507.695 872.372 507.189 872.484 506.875 872.476C506.698 872.471 506.293 872.444 505.641 871.81L96.1651 474.174C89.7229 467.918 94.1517 457 103.132 457L270.975 457C286.181 457 295.824 440.703 288.506 427.374L132.273 142.824C131.394 141.223 131.427 140.068 131.643 139.246C131.897 138.279 132.569 137.231 133.658 136.415C134.747 135.6 135.941 135.25 136.941 135.278C137.79 135.301 138.908 135.595 140.197 136.888Z" stroke="#025864" stroke-width="20"/>
<defs>
<clipPath id="clip0_0_1">
<rect width="149.515" height="146.356" fill="white" transform="translate(0 98.7085) rotate(-41.3145)"/>
</clipPath>
</defs>
</svg>
