<svg width="264" height="403" viewBox="0 0 264 403" fill="none" xmlns="http://www.w3.org/2000/svg">
<path d="M132.542 122.793L252.946 243.315C261.129 251.506 255.328 265.503 243.749 265.503L211.984 265.503C199.308 265.503 191.091 278.875 196.818 290.184L246.549 388.381C249.098 393.414 242.662 398.156 238.61 394.232L94.3528 254.513C85.9612 246.385 91.7149 232.175 103.397 232.175L146.088 232.175C159.021 232.175 167.217 218.306 160.98 206.977L119.874 132.306C115.408 124.192 125.996 116.242 132.542 122.793Z" stroke="#025864" stroke-width="14"/>
<path d="M132.189 68.0748C130.644 69.4323 128.614 70.1918 126.417 70.0738C96.2677 68.476 69.9216 91.6334 67.6381 121.739C67.3116 126.085 63.4959 129.439 59.1438 129.205C54.7917 128.971 51.5087 125.236 51.8353 120.89C54.7523 82.0703 88.7297 52.2052 127.603 54.2927C131.955 54.5264 135.238 58.2614 134.912 62.6075C134.747 64.8017 133.71 66.7372 132.189 68.0748Z" fill="#025864"/>
<path d="M129.899 98.2645C128.354 99.622 126.325 100.382 124.127 100.264C117.62 99.9141 111.281 102.137 106.329 106.489C101.378 110.841 98.3605 116.843 97.8722 123.341C97.5456 127.687 93.7299 131.041 89.3778 130.807C85.0257 130.574 81.7427 126.839 82.0693 122.493C82.8747 111.775 87.8156 101.915 95.992 94.728C104.168 87.5412 114.581 83.9061 125.333 84.5046C129.685 84.7384 132.968 88.4734 132.641 92.8195C132.48 94.9715 131.443 96.907 129.899 98.2645Z" fill="#025864"/>
<path d="M129.212 132.523C133.64 128.631 134.141 121.962 130.332 117.628C126.522 113.293 119.844 112.935 115.416 116.827C110.988 120.719 110.487 127.388 114.297 131.722C118.107 136.056 124.785 136.415 129.212 132.523Z" fill="#025864"/>
<path d="M134.494 37.3986C132.949 38.7561 130.92 39.5156 128.722 39.3976C81.6291 36.89 40.4747 73.0635 36.9425 120.069C36.6159 124.415 32.8003 127.769 28.4481 127.536C24.096 127.302 20.8131 123.567 21.1396 119.221C23.1689 92.2155 35.5956 67.421 56.1501 49.3542C76.7046 31.2875 102.889 22.1444 129.931 23.5965C134.283 23.8303 137.566 27.5653 137.239 31.9114C137.052 34.1255 136.015 36.0611 134.494 37.3986Z" fill="#025864"/>
</svg>
